<svg width="50" height="13" fill="none" xmlns="http://www.w3.org/2000/svg"><path d="M6.06 5.06L1.644 6.8 6.06 8.54v.744L.84 7.196v-.792l5.22-2.1v.756zM12.632.5h1.11V11h-1.11V.5zm11.876 4.14c.792 0 1.412.228 1.86.684.456.456.684 1.128.684 2.016V11H26.2V7.424c0-.656-.16-1.156-.48-1.5-.312-.344-.756-.516-1.332-.516-.656 0-1.172.204-1.548.612-.376.4-.564.956-.564 1.668V11h-.852V7.424c0-.656-.16-1.156-.48-1.5-.312-.344-.76-.516-1.344-.516-.648 0-1.164.204-1.548.612-.376.4-.564.956-.564 1.668V11h-.852V4.688h.816V5.84c.224-.384.536-.68.936-.888.4-.208.86-.312 1.38-.312.528 0 .984.112 1.368.336.392.224.684.556.876.996A2.43 2.43 0 0123.008 5c.44-.24.94-.36 1.5-.36zm10.374 3.468h-5.28c.048.656.3 1.188.756 1.596.456.4 1.032.6 1.728.6.392 0 .752-.068 1.08-.204.328-.144.612-.352.852-.624l.48.552c-.28.336-.632.592-1.056.768a3.507 3.507 0 01-1.38.264c-.648 0-1.224-.136-1.728-.408A3.038 3.038 0 0129.17 9.5a3.267 3.267 0 01-.42-1.656c0-.616.132-1.168.396-1.656.272-.488.64-.868 1.104-1.14.472-.272 1-.408 1.584-.408a3.05 3.05 0 011.572.408c.464.272.828.652 1.092 1.14.264.48.396 1.032.396 1.656l-.012.264zm-3.048-2.736c-.608 0-1.12.196-1.536.588-.408.384-.64.888-.696 1.512h4.476c-.056-.624-.292-1.128-.708-1.512-.408-.392-.92-.588-1.536-.588zm10.554-3.276V11h-.816V9.752a2.587 2.587 0 01-1.02.972 2.939 2.939 0 01-1.416.336 3.204 3.204 0 01-1.608-.408 2.916 2.916 0 01-1.128-1.14c-.272-.488-.408-1.044-.408-1.668 0-.624.136-1.18.408-1.668a2.834 2.834 0 011.128-1.128 3.204 3.204 0 011.608-.408c.512 0 .972.108 1.38.324a2.57 2.57 0 011.02.924V2.096h.852zm-3.18 8.208c.44 0 .836-.1 1.188-.3.36-.208.64-.5.84-.876.208-.376.312-.804.312-1.284s-.104-.908-.312-1.284c-.2-.376-.48-.664-.84-.864a2.29 2.29 0 00-1.188-.312c-.448 0-.852.104-1.212.312-.352.2-.632.488-.84.864-.2.376-.3.804-.3 1.284s.1.908.3 1.284c.208.376.488.668.84.876.36.2.764.3 1.212.3zm10.425-3.9v.792l-5.22 2.088V8.54L48.83 6.8l-4.416-1.74v-.756l5.22 2.1z" fill="#EEE"/><path d="M10.562.896h.78L7.382 12.2h-.78L10.562.896z" fill="#C362E6"/></svg>